<svg width="1270" height="1270" viewBox="0 0 1270 1270" fill="none" xmlns="http://www.w3.org/2000/svg">
<path d="M627.859 634.961L0.400449 606.333L6.86201 540.158L627.988 633.487L20.2071 475.02L40.3007 411.657L628.434 632.081L66.9019 350.702L99.7004 292.894L629.162 630.812L138.385 238.832L182.503 189.079L630.136 629.718L231.604 144.237L285.095 104.766L631.322 628.832L342.416 71.124L402.94 43.6333L632.686 628.225L466.038 22.6139L530.973 8.31678L634.122 627.899L597.011 0.886957L663.521 0.400038L635.595 627.889L729.661 6.86218L794.799 20.2071L637.036 628.194L858.198 40.3004L919.118 66.902L638.408 628.78L976.926 99.7006L1030.99 138.385L639.607 629.648L1080.74 182.503L1125.58 231.604L640.597 630.729L1165.05 285.095L1198.7 342.416L641.343 631.986L1226.19 402.975L1247.21 466.038L641.81 633.386L1261.5 530.973L1268.93 597.046L641.961 634.858L1269.42 663.521L1262.96 729.696L641.831 636.332L1249.61 794.799L1229.52 858.198L641.386 637.739L1202.92 919.118L1170.12 976.926L640.658 639.007L1131.44 1031.02L1087.32 1080.74L639.684 640.137L1038.22 1125.58L984.725 1165.05L638.498 640.988L927.404 1198.73L866.879 1226.19L637.134 641.594L803.782 1247.21L738.847 1261.5L635.698 641.92L672.808 1268.93L606.298 1269.42L634.225 641.931L540.158 1262.96L475.02 1249.61L632.784 641.626L411.622 1229.52L350.702 1202.95L631.412 641.039L292.894 1170.12L238.832 1131.43L630.213 640.206L189.079 1087.32L144.237 1038.25L629.222 639.091L104.765 984.725L71.1239 927.403L628.476 637.834L43.6334 866.879L22.6139 803.782L628.01 636.434L8.31687 738.882L0.887112 672.808L627.859 634.961Z" fill="white"/>
</svg>
